<svg width="100" height="100" viewBox="0 0 100 100" fill="none" xmlns="http://www.w3.org/2000/svg">
<path d="M34.1501 78.75C35.1501 77.6 36.8001 77.2 38.2501 77.75C42.3001 79.25 46.7501 80 51.2501 80C70.1001 80 85.0001 66.5 85.0001 50C85.0001 33.5 70.1001 20 51.2501 20C32.4001 20 17.5001 33.5 17.5001 50C17.5001 56.05 19.5001 61.85 23.2001 66.75C23.7001 67.45 24.0001 68.3 23.9501 69.2C23.7501 73 21.9501 78.1 18.5501 84.85C25.9501 84.3 31.0501 82.2 34.1501 78.75V78.75ZM16.2001 92.5C15.1429 92.5392 14.0942 92.2982 13.1602 91.8014C12.2262 91.3046 11.4401 90.5697 10.8817 89.6712C10.3233 88.7726 10.0124 87.7425 9.98051 86.685C9.94861 85.6276 10.1969 84.5805 10.7001 83.65C13.1842 79.3785 15.0685 74.7854 16.3001 70C12.2055 64.1338 10.0068 57.1538 10.0001 50C10.0001 29.15 28.4001 12.5 51.2501 12.5C74.1001 12.5 92.5001 29.15 92.5001 50C92.5001 70.85 74.1001 87.5 51.2501 87.5C46.6501 87.5 42.2001 86.85 37.9501 85.5C32.9501 89.95 25.6501 92.2 16.2001 92.5Z" fill="#222222"/>
</svg>
