<svg width="100" height="100" viewBox="0 0 100 100" fill="none" xmlns="http://www.w3.org/2000/svg">
<path d="M27.5 55C28.4946 55 29.4484 55.3951 30.1517 56.0983C30.8549 56.8016 31.25 57.7554 31.25 58.75V63.75C31.25 64.7445 30.8549 65.6984 30.1517 66.4016C29.4484 67.1049 28.4946 67.5 27.5 67.5C26.5054 67.5 25.5516 67.1049 24.8483 66.4016C24.1451 65.6984 23.75 64.7445 23.75 63.75V58.75C23.75 57.7554 24.1451 56.8016 24.8483 56.0983C25.5516 55.3951 26.5054 55 27.5 55ZM46.25 53.75C46.25 52.7554 45.8549 51.8016 45.1516 51.0983C44.4484 50.3951 43.4946 50 42.5 50C41.5054 50 40.5516 50.3951 39.8483 51.0983C39.1451 51.8016 38.75 52.7554 38.75 53.75V67.5C38.75 68.4945 39.1451 69.4484 39.8483 70.1516C40.5516 70.8549 41.5054 71.25 42.5 71.25C43.4946 71.25 44.4484 70.8549 45.1516 70.1516C45.8549 69.4484 46.25 68.4945 46.25 67.5V53.75ZM72.5 50C72.9967 49.9999 73.4884 50.0986 73.9467 50.2901C74.405 50.4817 74.8206 50.7624 75.1695 51.116C75.5184 51.4695 75.7935 51.8888 75.979 52.3496C76.1645 52.8103 76.2566 53.3033 76.25 53.8V67.8C76.2434 68.7946 75.8419 69.7457 75.134 70.4443C74.426 71.1429 73.4696 71.5316 72.475 71.525C71.4804 71.5184 70.5292 71.1169 69.8307 70.409C69.1321 69.701 68.7434 68.7445 68.75 67.75V53.75C68.75 52.7554 69.1451 51.8016 69.8484 51.0983C70.5516 50.3951 71.5054 50 72.5 50ZM61.25 46.3C61.25 45.3054 60.8549 44.3516 60.1516 43.6483C59.4484 42.9451 58.4946 42.55 57.5 42.55C56.5054 42.55 55.5516 42.9451 54.8484 43.6483C54.1451 44.3516 53.75 45.3054 53.75 46.3V68.8C53.75 69.7945 54.1451 70.7484 54.8484 71.4516C55.5516 72.1549 56.5054 72.55 57.5 72.55C58.4946 72.55 59.4484 72.1549 60.1516 71.4516C60.8549 70.7484 61.25 69.7945 61.25 68.8V46.3Z" fill="#222222"/>
<path fill-rule="evenodd" clip-rule="evenodd" d="M39.6 10C35.2 10 31.6 10 28.75 10.25C26.0298 10.3722 23.3612 11.0351 20.9 12.2C17.1579 14.1138 14.1138 17.1579 12.2 20.9C11.0178 23.3576 10.3379 26.0264 10.2 28.75C10 31.65 10 35.2 10 39.6V60.4C10 64.8 10 68.4 10.25 71.25C10.45 74.15 11 76.75 12.2 79.1C14.1138 82.8421 17.1579 85.8862 20.9 87.8C23.3 89 25.85 89.55 28.75 89.8C31.65 90 35.2 90 39.6 90H60.4C64.8 90 68.4 90 71.25 89.75C73.9702 89.6278 76.6388 88.9649 79.1 87.8C82.8421 85.8862 85.8862 82.8421 87.8 79.1C89 76.75 89.55 74.15 89.8 71.25C90 68.35 90 64.8 90 60.4V39.6C90 35.2 90 31.6 89.75 28.75C89.6278 26.0298 88.9649 23.3612 87.8 20.9C85.8862 17.1579 82.8421 14.1138 79.1 12.2C76.6424 11.0178 73.9736 10.3379 71.25 10.2C68.35 10 64.8 10 60.4 10H39.6ZM24.35 18.85C25.45 18.3 26.9 17.9 29.35 17.7C31.9 17.5 35.15 17.5 39.75 17.5H60.25C64.85 17.5 68.1 17.5 70.6 17.7C73.1 17.9 74.6 18.3 75.7 18.85C78.053 20.0603 79.9612 21.986 81.15 24.35C81.7 25.45 82.1 26.9 82.3 29.35C82.45 31.45 82.5 34 82.5 37.35C80.6 35.95 78.25 34.35 75.75 32.85C70.55 29.6 63.75 26.25 57.5 26.25C50.35 26.25 44.85 29.45 39.8 32.4L37.7 33.65C31.6055 37.4194 24.6568 39.5866 17.5 39.95V39.75C17.5 35.15 17.5 31.9 17.7 29.4C17.9 26.9 18.3 25.4 18.85 24.35C20.0518 21.9784 21.9784 20.0518 24.35 18.85V18.85ZM17.5 47.5V60.25C17.5 64.85 17.5 68.1 17.7 70.6C17.9 73.1 18.3 74.6 18.85 75.7C20.0603 78.053 21.986 79.9612 24.35 81.15C25.45 81.7 26.9 82.1 29.35 82.3C31.9 82.5 35.15 82.5 39.75 82.5H60.25C64.85 82.5 68.1 82.5 70.6 82.3C73.1 82.1 74.6 81.7 75.7 81.15C78.053 79.9397 79.9612 78.014 81.15 75.65C81.7 74.55 82.1 73.1 82.3 70.65C82.5 68.1 82.5 64.85 82.5 60.25V46.8C82.2159 46.5843 81.9326 46.3677 81.65 46.15C79.5 44.5 75.95 41.75 71.85 39.2C67.6002 36.2072 62.6651 34.3328 57.5 33.75C52.5 33.75 48.85 35.85 43.65 38.85C42.9016 39.2861 42.1516 39.7194 41.4 40.15C34.1871 44.5907 25.9617 47.1203 17.5 47.5V47.5Z" fill="#222222"/>
</svg>
