<svg width="100" height="100" viewBox="0 0 100 100" fill="none" xmlns="http://www.w3.org/2000/svg">
<path fill-rule="evenodd" clip-rule="evenodd" d="M59.2 10H40.8C36.15 10 32.45 10 29.5 10.25C26.4 10.5 23.75 11 21.35 12.25C17.4289 14.2423 14.2423 17.4289 12.25 21.35C11.0495 23.9072 10.3696 26.6776 10.25 29.5C10 32.5 10 36.15 10 40.8V59.2C10 63.85 10 67.55 10.25 70.5C10.5 73.6 11 76.25 12.25 78.65C14.25 82.55 17.45 85.75 21.35 87.75C23.75 89 26.4 89.5 29.5 89.75C32.5 90 36.15 90 40.8 90H59.2C63.85 90 67.55 90 70.5 89.75C73.3224 89.6304 76.0928 88.9505 78.65 87.75C82.5711 85.7577 85.7577 82.5711 87.75 78.65C89 76.25 89.5 73.6 89.75 70.5C90 67.5 90 63.85 90 59.2V40.8C90 36.15 90 32.45 89.75 29.5C89.6304 26.6776 88.9505 23.9072 87.75 21.35C85.7577 17.4289 82.5711 14.2423 78.65 12.25C76.0928 11.0495 73.3224 10.3696 70.5 10.25C67.5 10 63.85 10 59.2 10ZM24.7 18.95C25.95 18.35 27.5 17.95 30.1 17.7C32.75 17.5 36.1 17.5 40.95 17.5H59.05C63.85 17.5 67.25 17.5 69.9 17.7C72.5 17.95 74.05 18.35 75.25 18.95C77.75 20.2 79.75 22.25 81.05 24.75C81.65 25.95 82.05 27.5 82.3 30.1L82.4 32.5H17.6L17.7 30.1C17.95 27.5 18.35 25.95 18.95 24.75C20.2 22.25 22.25 20.25 24.75 18.95H24.7ZM17.5 40V59.05C17.5 63.85 17.5 67.25 17.7 69.9C17.95 72.5 18.35 74.05 18.95 75.25C20.2 77.75 22.25 79.75 24.75 81.05C25.95 81.65 27.5 82.05 30.1 82.3C32.75 82.5 36.1 82.5 40.95 82.5H59.05C63.85 82.5 67.25 82.5 69.9 82.3C71.7484 82.2408 73.5667 81.8159 75.25 81.05C77.75 79.8 79.75 77.75 81.05 75.25C81.65 74.05 82.05 72.5 82.3 69.9C82.5 67.25 82.5 63.9 82.5 59.05V40.95V40H17.5Z" fill="#222222"/>
</svg>
