<svg width="100" height="100" viewBox="0 0 100 100" fill="none" xmlns="http://www.w3.org/2000/svg">
<path fill-rule="evenodd" clip-rule="evenodd" d="M29.2 78.15C35.2125 82.6225 42.5065 85.0378 50 85.0378C57.4935 85.0378 64.7875 82.6225 70.8 78.15C64.4964 74.4391 57.3148 72.4821 50 72.4821C42.6852 72.4821 35.5036 74.4391 29.2 78.15V78.15ZM23.5 72.85C19.1211 67.7746 16.2917 61.5485 15.3483 54.9119C14.405 48.2753 15.3872 41.5074 18.1784 35.4128C20.9695 29.3183 25.4521 24.1534 31.0933 20.5323C36.7344 16.9112 43.2967 14.9863 50 14.9863C56.7033 14.9863 63.2656 16.9112 68.9067 20.5323C74.5479 24.1534 79.0305 29.3183 81.8216 35.4128C84.6128 41.5074 85.595 48.2753 84.6517 54.9119C83.7083 61.5485 80.8789 67.7746 76.5 72.85C68.6182 67.708 59.4107 64.9702 50 64.9702C40.5893 64.9702 31.3818 67.708 23.5 72.85V72.85ZM50 7.5C44.4188 7.5 38.8923 8.59929 33.736 10.7351C28.5796 12.8709 23.8945 16.0015 19.948 19.948C16.0015 23.8945 12.8709 28.5796 10.7351 33.736C8.5993 38.8923 7.5 44.4188 7.5 50C7.5 55.5812 8.5993 61.1077 10.7351 66.264C12.8709 71.4204 16.0015 76.1056 19.948 80.052C23.8945 83.9985 28.5796 87.1291 33.736 89.2649C38.8923 91.4007 44.4188 92.5 50 92.5C61.2717 92.5 72.0817 88.0223 80.052 80.052C88.0223 72.0817 92.5 61.2717 92.5 50C92.5 38.7283 88.0223 27.9183 80.052 19.948C72.0817 11.9777 61.2717 7.5 50 7.5V7.5ZM42.5 42.5C42.5 44.4891 43.2902 46.3968 44.6967 47.8033C46.1032 49.2098 48.0109 50 50 50C51.9891 50 53.8968 49.2098 55.3033 47.8033C56.7098 46.3968 57.5 44.4891 57.5 42.5C57.5 40.5109 56.7098 38.6032 55.3033 37.1967C53.8968 35.7902 51.9891 35 50 35C48.0109 35 46.1032 35.7902 44.6967 37.1967C43.2902 38.6032 42.5 40.5109 42.5 42.5V42.5ZM50 27.5C48.0302 27.5 46.0796 27.888 44.2597 28.6418C42.4399 29.3956 40.7863 30.5005 39.3934 31.8934C38.0005 33.2863 36.8956 34.9399 36.1418 36.7597C35.388 38.5796 35 40.5302 35 42.5C35 44.4698 35.388 46.4204 36.1418 48.2403C36.8956 50.0601 38.0005 51.7137 39.3934 53.1066C40.7863 54.4995 42.4399 55.6044 44.2597 56.3582C46.0796 57.112 48.0302 57.5 50 57.5C53.9782 57.5 57.7936 55.9196 60.6066 53.1066C63.4196 50.2936 65 46.4782 65 42.5C65 38.5218 63.4196 34.7064 60.6066 31.8934C57.7936 29.0804 53.9782 27.5 50 27.5Z" fill="#222222"/>
</svg>
