<svg width="100" height="100" viewBox="0 0 100 100" fill="none" xmlns="http://www.w3.org/2000/svg">
<path fill-rule="evenodd" clip-rule="evenodd" d="M42.5 11.25C40.4289 11.25 38.75 12.9289 38.75 15V22.6824L38.2404 22.9371L32.6517 17.3484C31.1872 15.8839 28.8128 15.8839 27.3484 17.3484L17.3484 27.3484C15.8839 28.8128 15.8839 31.1872 17.3484 32.6517L22.9371 38.2404L22.6824 38.75H15C12.9289 38.75 11.25 40.4289 11.25 42.5V57.5C11.25 59.5711 12.9289 61.25 15 61.25H22.6824L22.9371 61.7596L17.3484 67.3484C15.8839 68.8128 15.8839 71.1872 17.3484 72.6516L27.3484 82.6516C28.8128 84.1161 31.1872 84.1161 32.6517 82.6516L38.2404 77.0629L38.75 77.3176V85C38.75 87.0711 40.4289 88.75 42.5 88.75H57.5C59.5711 88.75 61.25 87.0711 61.25 85V77.3176L61.7596 77.0629L67.3484 82.6516C68.8128 84.1161 71.1872 84.1161 72.6516 82.6516L82.6516 72.6516C84.1161 71.1872 84.1161 68.8128 82.6516 67.3484L77.0629 61.7596L77.3176 61.25H85C87.0711 61.25 88.75 59.5711 88.75 57.5V42.5C88.75 40.4289 87.0711 38.75 85 38.75H77.3176L77.0629 38.2404L82.6516 32.6517C84.1161 31.1872 84.1161 28.8128 82.6516 27.3484L72.6516 17.3484C71.1872 15.8839 68.8128 15.8839 67.3484 17.3484L61.7596 22.9371L61.25 22.6824V15C61.25 12.9289 59.5711 11.25 57.5 11.25H42.5ZM46.25 25V18.75H53.75V25C53.75 26.4204 54.5525 27.7189 55.8229 28.3541L60.8229 30.8541C62.2667 31.576 64.0103 31.293 65.1516 30.1516L70 25.3033L74.6967 30L69.8484 34.8483C68.707 35.9897 68.424 37.7333 69.1459 39.1771L71.6459 44.1771C72.2811 45.4475 73.5796 46.25 75 46.25H81.25V53.75H75C73.5796 53.75 72.2811 54.5525 71.6459 55.8229L69.1459 60.8229C68.424 62.2667 68.707 64.0103 69.8484 65.1516L74.6967 70L70 74.6967L65.1516 69.8484C64.0103 68.707 62.2667 68.424 60.8229 69.1459L55.8229 71.6459C54.5525 72.2811 53.75 73.5796 53.75 75V81.25H46.25V75C46.25 73.5796 45.4475 72.2811 44.1771 71.6459L39.1771 69.1459C37.7333 68.424 35.9897 68.707 34.8483 69.8484L30 74.6967L25.3033 70L30.1516 65.1516C31.293 64.0103 31.576 62.2667 30.8541 60.8229L28.3541 55.8229C27.7189 54.5525 26.4204 53.75 25 53.75H18.75V46.25H25C26.4204 46.25 27.7189 45.4475 28.3541 44.1771L30.8541 39.1771C31.576 37.7333 31.293 35.9897 30.1516 34.8483L25.3033 30L30 25.3033L34.8483 30.1516C35.9897 31.293 37.7333 31.576 39.1771 30.8541L44.1771 28.3541C45.4475 27.7189 46.25 26.4204 46.25 25ZM43.75 50C43.75 46.5482 46.5482 43.75 50 43.75C53.4518 43.75 56.25 46.5482 56.25 50C56.25 53.4518 53.4518 56.25 50 56.25C46.5482 56.25 43.75 53.4518 43.75 50ZM50 36.25C42.4061 36.25 36.25 42.4061 36.25 50C36.25 57.5939 42.4061 63.75 50 63.75C57.5939 63.75 63.75 57.5939 63.75 50C63.75 42.4061 57.5939 36.25 50 36.25Z" fill="#222222"/>
</svg>
