<svg xmlns="http://www.w3.org/2000/svg">
    <symbol id="Profile" viewBox="0 0 100 100" xmlns="http://www.w3.org/2000/svg">
        <path fill-rule="evenodd" clip-rule="evenodd" d="M29.2 78.15C35.2125 82.6225 42.5065 85.0378 50 85.0378C57.4935 85.0378 64.7875 82.6225 70.8 78.15C64.4964 74.4391 57.3148 72.4821 50 72.4821C42.6852 72.4821 35.5036 74.4391 29.2 78.15V78.15ZM23.5 72.85C19.1211 67.7746 16.2917 61.5485 15.3483 54.9119C14.405 48.2753 15.3872 41.5074 18.1784 35.4128C20.9695 29.3183 25.4521 24.1534 31.0933 20.5323C36.7344 16.9112 43.2967 14.9863 50 14.9863C56.7033 14.9863 63.2656 16.9112 68.9067 20.5323C74.5479 24.1534 79.0305 29.3183 81.8216 35.4128C84.6128 41.5074 85.595 48.2753 84.6517 54.9119C83.7083 61.5485 80.8789 67.7746 76.5 72.85C68.6182 67.708 59.4107 64.9702 50 64.9702C40.5893 64.9702 31.3818 67.708 23.5 72.85V72.85ZM50 7.5C44.4188 7.5 38.8923 8.59929 33.736 10.7351C28.5796 12.8709 23.8945 16.0015 19.948 19.948C16.0015 23.8945 12.8709 28.5796 10.7351 33.736C8.5993 38.8923 7.5 44.4188 7.5 50C7.5 55.5812 8.5993 61.1077 10.7351 66.264C12.8709 71.4204 16.0015 76.1056 19.948 80.052C23.8945 83.9985 28.5796 87.1291 33.736 89.2649C38.8923 91.4007 44.4188 92.5 50 92.5C61.2717 92.5 72.0817 88.0223 80.052 80.052C88.0223 72.0817 92.5 61.2717 92.5 50C92.5 38.7283 88.0223 27.9183 80.052 19.948C72.0817 11.9777 61.2717 7.5 50 7.5V7.5ZM42.5 42.5C42.5 44.4891 43.2902 46.3968 44.6967 47.8033C46.1032 49.2098 48.0109 50 50 50C51.9891 50 53.8968 49.2098 55.3033 47.8033C56.7098 46.3968 57.5 44.4891 57.5 42.5C57.5 40.5109 56.7098 38.6032 55.3033 37.1967C53.8968 35.7902 51.9891 35 50 35C48.0109 35 46.1032 35.7902 44.6967 37.1967C43.2902 38.6032 42.5 40.5109 42.5 42.5V42.5ZM50 27.5C48.0302 27.5 46.0796 27.888 44.2597 28.6418C42.4399 29.3956 40.7863 30.5005 39.3934 31.8934C38.0005 33.2863 36.8956 34.9399 36.1418 36.7597C35.388 38.5796 35 40.5302 35 42.5C35 44.4698 35.388 46.4204 36.1418 48.2403C36.8956 50.0601 38.0005 51.7137 39.3934 53.1066C40.7863 54.4995 42.4399 55.6044 44.2597 56.3582C46.0796 57.112 48.0302 57.5 50 57.5C53.9782 57.5 57.7936 55.9196 60.6066 53.1066C63.4196 50.2936 65 46.4782 65 42.5C65 38.5218 63.4196 34.7064 60.6066 31.8934C57.7936 29.0804 53.9782 27.5 50 27.5Z"/>
    </symbol>
    <symbol viewBox="0 0 100 100" id="Dialogs">
        <path d="M34.1501 78.75C35.1501 77.6 36.8001 77.2 38.2501 77.75C42.3001 79.25 46.7501 80 51.2501 80C70.1001 80 85.0001 66.5 85.0001 50C85.0001 33.5 70.1001 20 51.2501 20C32.4001 20 17.5001 33.5 17.5001 50C17.5001 56.05 19.5001 61.85 23.2001 66.75C23.7001 67.45 24.0001 68.3 23.9501 69.2C23.7501 73 21.9501 78.1 18.5501 84.85C25.9501 84.3 31.0501 82.2 34.1501 78.75V78.75ZM16.2001 92.5C15.1429 92.5392 14.0942 92.2982 13.1602 91.8014C12.2262 91.3046 11.4401 90.5697 10.8817 89.6712C10.3233 88.7726 10.0124 87.7425 9.98051 86.685C9.94861 85.6276 10.1969 84.5805 10.7001 83.65C13.1842 79.3785 15.0685 74.7854 16.3001 70C12.2055 64.1338 10.0068 57.1538 10.0001 50C10.0001 29.15 28.4001 12.5 51.2501 12.5C74.1001 12.5 92.5001 29.15 92.5001 50C92.5001 70.85 74.1001 87.5 51.2501 87.5C46.6501 87.5 42.2001 86.85 37.9501 85.5C32.9501 89.95 25.6501 92.2 16.2001 92.5Z"/>
    </symbol>
    <symbol viewBox="0 0 100 100" id="News">
        <path fill-rule="evenodd" clip-rule="evenodd" d="M59.2 10H40.8C36.15 10 32.45 10 29.5 10.25C26.4 10.5 23.75 11 21.35 12.25C17.4289 14.2423 14.2423 17.4289 12.25 21.35C11.0495 23.9072 10.3696 26.6776 10.25 29.5C10 32.5 10 36.15 10 40.8V59.2C10 63.85 10 67.55 10.25 70.5C10.5 73.6 11 76.25 12.25 78.65C14.25 82.55 17.45 85.75 21.35 87.75C23.75 89 26.4 89.5 29.5 89.75C32.5 90 36.15 90 40.8 90H59.2C63.85 90 67.55 90 70.5 89.75C73.3224 89.6304 76.0928 88.9505 78.65 87.75C82.5711 85.7577 85.7577 82.5711 87.75 78.65C89 76.25 89.5 73.6 89.75 70.5C90 67.5 90 63.85 90 59.2V40.8C90 36.15 90 32.45 89.75 29.5C89.6304 26.6776 88.9505 23.9072 87.75 21.35C85.7577 17.4289 82.5711 14.2423 78.65 12.25C76.0928 11.0495 73.3224 10.3696 70.5 10.25C67.5 10 63.85 10 59.2 10ZM24.7 18.95C25.95 18.35 27.5 17.95 30.1 17.7C32.75 17.5 36.1 17.5 40.95 17.5H59.05C63.85 17.5 67.25 17.5 69.9 17.7C72.5 17.95 74.05 18.35 75.25 18.95C77.75 20.2 79.75 22.25 81.05 24.75C81.65 25.95 82.05 27.5 82.3 30.1L82.4 32.5H17.6L17.7 30.1C17.95 27.5 18.35 25.95 18.95 24.75C20.2 22.25 22.25 20.25 24.75 18.95H24.7ZM17.5 40V59.05C17.5 63.85 17.5 67.25 17.7 69.9C17.95 72.5 18.35 74.05 18.95 75.25C20.2 77.75 22.25 79.75 24.75 81.05C25.95 81.65 27.5 82.05 30.1 82.3C32.75 82.5 36.1 82.5 40.95 82.5H59.05C63.85 82.5 67.25 82.5 69.9 82.3C71.7484 82.2408 73.5667 81.8159 75.25 81.05C77.75 79.8 79.75 77.75 81.05 75.25C81.65 74.05 82.05 72.5 82.3 69.9C82.5 67.25 82.5 63.9 82.5 59.05V40.95V40H17.5Z"/>
    </symbol>
    <symbol viewBox="0 0 100 100" id="Music">
        <path d="M27.5 55C28.4946 55 29.4484 55.3951 30.1517 56.0983C30.8549 56.8016 31.25 57.7554 31.25 58.75V63.75C31.25 64.7445 30.8549 65.6984 30.1517 66.4016C29.4484 67.1049 28.4946 67.5 27.5 67.5C26.5054 67.5 25.5516 67.1049 24.8483 66.4016C24.1451 65.6984 23.75 64.7445 23.75 63.75V58.75C23.75 57.7554 24.1451 56.8016 24.8483 56.0983C25.5516 55.3951 26.5054 55 27.5 55ZM46.25 53.75C46.25 52.7554 45.8549 51.8016 45.1516 51.0983C44.4484 50.3951 43.4946 50 42.5 50C41.5054 50 40.5516 50.3951 39.8483 51.0983C39.1451 51.8016 38.75 52.7554 38.75 53.75V67.5C38.75 68.4945 39.1451 69.4484 39.8483 70.1516C40.5516 70.8549 41.5054 71.25 42.5 71.25C43.4946 71.25 44.4484 70.8549 45.1516 70.1516C45.8549 69.4484 46.25 68.4945 46.25 67.5V53.75ZM72.5 50C72.9967 49.9999 73.4884 50.0986 73.9467 50.2901C74.405 50.4817 74.8206 50.7624 75.1695 51.116C75.5184 51.4695 75.7935 51.8888 75.979 52.3496C76.1645 52.8103 76.2566 53.3033 76.25 53.8V67.8C76.2434 68.7946 75.8419 69.7457 75.134 70.4443C74.426 71.1429 73.4696 71.5316 72.475 71.525C71.4804 71.5184 70.5292 71.1169 69.8307 70.409C69.1321 69.701 68.7434 68.7445 68.75 67.75V53.75C68.75 52.7554 69.1451 51.8016 69.8484 51.0983C70.5516 50.3951 71.5054 50 72.5 50ZM61.25 46.3C61.25 45.3054 60.8549 44.3516 60.1516 43.6483C59.4484 42.9451 58.4946 42.55 57.5 42.55C56.5054 42.55 55.5516 42.9451 54.8484 43.6483C54.1451 44.3516 53.75 45.3054 53.75 46.3V68.8C53.75 69.7945 54.1451 70.7484 54.8484 71.4516C55.5516 72.1549 56.5054 72.55 57.5 72.55C58.4946 72.55 59.4484 72.1549 60.1516 71.4516C60.8549 70.7484 61.25 69.7945 61.25 68.8V46.3Z"/>
        <path fill-rule="evenodd" clip-rule="evenodd" d="M39.6 10C35.2 10 31.6 10 28.75 10.25C26.0298 10.3722 23.3612 11.0351 20.9 12.2C17.1579 14.1138 14.1138 17.1579 12.2 20.9C11.0178 23.3576 10.3379 26.0264 10.2 28.75C10 31.65 10 35.2 10 39.6V60.4C10 64.8 10 68.4 10.25 71.25C10.45 74.15 11 76.75 12.2 79.1C14.1138 82.8421 17.1579 85.8862 20.9 87.8C23.3 89 25.85 89.55 28.75 89.8C31.65 90 35.2 90 39.6 90H60.4C64.8 90 68.4 90 71.25 89.75C73.9702 89.6278 76.6388 88.9649 79.1 87.8C82.8421 85.8862 85.8862 82.8421 87.8 79.1C89 76.75 89.55 74.15 89.8 71.25C90 68.35 90 64.8 90 60.4V39.6C90 35.2 90 31.6 89.75 28.75C89.6278 26.0298 88.9649 23.3612 87.8 20.9C85.8862 17.1579 82.8421 14.1138 79.1 12.2C76.6424 11.0178 73.9736 10.3379 71.25 10.2C68.35 10 64.8 10 60.4 10H39.6ZM24.35 18.85C25.45 18.3 26.9 17.9 29.35 17.7C31.9 17.5 35.15 17.5 39.75 17.5H60.25C64.85 17.5 68.1 17.5 70.6 17.7C73.1 17.9 74.6 18.3 75.7 18.85C78.053 20.0603 79.9612 21.986 81.15 24.35C81.7 25.45 82.1 26.9 82.3 29.35C82.45 31.45 82.5 34 82.5 37.35C80.6 35.95 78.25 34.35 75.75 32.85C70.55 29.6 63.75 26.25 57.5 26.25C50.35 26.25 44.85 29.45 39.8 32.4L37.7 33.65C31.6055 37.4194 24.6568 39.5866 17.5 39.95V39.75C17.5 35.15 17.5 31.9 17.7 29.4C17.9 26.9 18.3 25.4 18.85 24.35C20.0518 21.9784 21.9784 20.0518 24.35 18.85V18.85ZM17.5 47.5V60.25C17.5 64.85 17.5 68.1 17.7 70.6C17.9 73.1 18.3 74.6 18.85 75.7C20.0603 78.053 21.986 79.9612 24.35 81.15C25.45 81.7 26.9 82.1 29.35 82.3C31.9 82.5 35.15 82.5 39.75 82.5H60.25C64.85 82.5 68.1 82.5 70.6 82.3C73.1 82.1 74.6 81.7 75.7 81.15C78.053 79.9397 79.9612 78.014 81.15 75.65C81.7 74.55 82.1 73.1 82.3 70.65C82.5 68.1 82.5 64.85 82.5 60.25V46.8C82.2159 46.5843 81.9326 46.3677 81.65 46.15C79.5 44.5 75.95 41.75 71.85 39.2C67.6002 36.2072 62.6651 34.3328 57.5 33.75C52.5 33.75 48.85 35.85 43.65 38.85C42.9016 39.2861 42.1516 39.7194 41.4 40.15C34.1871 44.5907 25.9617 47.1203 17.5 47.5V47.5Z"/>
    </symbol>
    <symbol viewBox="0 0 100 100" id="Settings">
        <path fill-rule="evenodd" clip-rule="evenodd" d="M42.5 11.25C40.4289 11.25 38.75 12.9289 38.75 15V22.6824L38.2404 22.9371L32.6517 17.3484C31.1872 15.8839 28.8128 15.8839 27.3484 17.3484L17.3484 27.3484C15.8839 28.8128 15.8839 31.1872 17.3484 32.6517L22.9371 38.2404L22.6824 38.75H15C12.9289 38.75 11.25 40.4289 11.25 42.5V57.5C11.25 59.5711 12.9289 61.25 15 61.25H22.6824L22.9371 61.7596L17.3484 67.3484C15.8839 68.8128 15.8839 71.1872 17.3484 72.6516L27.3484 82.6516C28.8128 84.1161 31.1872 84.1161 32.6517 82.6516L38.2404 77.0629L38.75 77.3176V85C38.75 87.0711 40.4289 88.75 42.5 88.75H57.5C59.5711 88.75 61.25 87.0711 61.25 85V77.3176L61.7596 77.0629L67.3484 82.6516C68.8128 84.1161 71.1872 84.1161 72.6516 82.6516L82.6516 72.6516C84.1161 71.1872 84.1161 68.8128 82.6516 67.3484L77.0629 61.7596L77.3176 61.25H85C87.0711 61.25 88.75 59.5711 88.75 57.5V42.5C88.75 40.4289 87.0711 38.75 85 38.75H77.3176L77.0629 38.2404L82.6516 32.6517C84.1161 31.1872 84.1161 28.8128 82.6516 27.3484L72.6516 17.3484C71.1872 15.8839 68.8128 15.8839 67.3484 17.3484L61.7596 22.9371L61.25 22.6824V15C61.25 12.9289 59.5711 11.25 57.5 11.25H42.5ZM46.25 25V18.75H53.75V25C53.75 26.4204 54.5525 27.7189 55.8229 28.3541L60.8229 30.8541C62.2667 31.576 64.0103 31.293 65.1516 30.1516L70 25.3033L74.6967 30L69.8484 34.8483C68.707 35.9897 68.424 37.7333 69.1459 39.1771L71.6459 44.1771C72.2811 45.4475 73.5796 46.25 75 46.25H81.25V53.75H75C73.5796 53.75 72.2811 54.5525 71.6459 55.8229L69.1459 60.8229C68.424 62.2667 68.707 64.0103 69.8484 65.1516L74.6967 70L70 74.6967L65.1516 69.8484C64.0103 68.707 62.2667 68.424 60.8229 69.1459L55.8229 71.6459C54.5525 72.2811 53.75 73.5796 53.75 75V81.25H46.25V75C46.25 73.5796 45.4475 72.2811 44.1771 71.6459L39.1771 69.1459C37.7333 68.424 35.9897 68.707 34.8483 69.8484L30 74.6967L25.3033 70L30.1516 65.1516C31.293 64.0103 31.576 62.2667 30.8541 60.8229L28.3541 55.8229C27.7189 54.5525 26.4204 53.75 25 53.75H18.75V46.25H25C26.4204 46.25 27.7189 45.4475 28.3541 44.1771L30.8541 39.1771C31.576 37.7333 31.293 35.9897 30.1516 34.8483L25.3033 30L30 25.3033L34.8483 30.1516C35.9897 31.293 37.7333 31.576 39.1771 30.8541L44.1771 28.3541C45.4475 27.7189 46.25 26.4204 46.25 25ZM43.75 50C43.75 46.5482 46.5482 43.75 50 43.75C53.4518 43.75 56.25 46.5482 56.25 50C56.25 53.4518 53.4518 56.25 50 56.25C46.5482 56.25 43.75 53.4518 43.75 50ZM50 36.25C42.4061 36.25 36.25 42.4061 36.25 50C36.25 57.5939 42.4061 63.75 50 63.75C57.5939 63.75 63.75 57.5939 63.75 50C63.75 42.4061 57.5939 36.25 50 36.25Z"/>
    </symbol>
    <symbol viewBox="0 0 100 100" id="Friends">
        <path d="M90.25 85C90.25 85 96 85 96 79.25C96 73.5 90.25 56.25 67.25 56.25C44.25 56.25 38.5 73.5 38.5 79.25C38.5 85 44.25 85 44.25 85H90.25ZM44.3765 79.25C44.334 79.2441 44.2918 79.2365 44.25 79.227C44.2558 77.709 45.2103 73.3045 48.62 69.337C51.794 65.6168 57.3715 62 67.25 62C77.1228 62 82.7002 65.6225 85.88 69.337C89.2897 73.3045 90.2385 77.7148 90.25 79.227L90.204 79.2385C90.1773 79.243 90.1504 79.2469 90.1235 79.25H44.3765V79.25ZM67.25 44.75C70.3 44.75 73.2251 43.5384 75.3817 41.3817C77.5384 39.2251 78.75 36.3 78.75 33.25C78.75 30.2 77.5384 27.2749 75.3817 25.1183C73.2251 22.9616 70.3 21.75 67.25 21.75C64.2 21.75 61.2749 22.9616 59.1183 25.1183C56.9616 27.2749 55.75 30.2 55.75 33.25C55.75 36.3 56.9616 39.2251 59.1183 41.3817C61.2749 43.5384 64.2 44.75 67.25 44.75ZM84.5 33.25C84.5 35.5153 84.0538 37.7584 83.1869 39.8513C82.32 41.9442 81.0494 43.8458 79.4476 45.4476C77.8458 47.0494 75.9442 48.32 73.8513 49.1869C71.7584 50.0538 69.5153 50.5 67.25 50.5C64.9847 50.5 62.7416 50.0538 60.6487 49.1869C58.5558 48.32 56.6542 47.0494 55.0524 45.4476C53.4506 43.8458 52.18 41.9442 51.3131 39.8513C50.4462 37.7584 50 35.5153 50 33.25C50 28.675 51.8174 24.2874 55.0524 21.0524C58.2874 17.8174 62.675 16 67.25 16C71.825 16 76.2126 17.8174 79.4476 21.0524C82.6826 24.2874 84.5 28.675 84.5 33.25V33.25ZM43.882 57.86C41.5819 57.1357 39.2109 56.6596 36.8095 56.4397C35.4602 56.3114 34.1054 56.2481 32.75 56.25C9.75 56.25 4 73.5 4 79.25C4 83.0852 5.91475 85 9.75 85H33.992C33.1396 83.2049 32.7145 81.2369 32.75 79.25C32.75 73.4425 34.9178 67.5085 39.0175 62.552C40.4148 60.8615 42.042 59.2802 43.882 57.86ZM32.29 62C28.8869 67.1133 27.0485 73.1079 27 79.25H9.75C9.75 77.755 10.693 73.3275 14.12 69.337C17.2538 65.68 22.699 62.115 32.29 62.0058V62ZM12.625 36.125C12.625 31.55 14.4424 27.1624 17.6774 23.9274C20.9124 20.6924 25.3 18.875 29.875 18.875C34.45 18.875 38.8376 20.6924 42.0726 23.9274C45.3076 27.1624 47.125 31.55 47.125 36.125C47.125 40.7 45.3076 45.0876 42.0726 48.3226C38.8376 51.5576 34.45 53.375 29.875 53.375C25.3 53.375 20.9124 51.5576 17.6774 48.3226C14.4424 45.0876 12.625 40.7 12.625 36.125V36.125ZM29.875 24.625C26.825 24.625 23.8999 25.8366 21.7433 27.9933C19.5866 30.1499 18.375 33.075 18.375 36.125C18.375 39.175 19.5866 42.1001 21.7433 44.2567C23.8999 46.4134 26.825 47.625 29.875 47.625C32.925 47.625 35.8501 46.4134 38.0067 44.2567C40.1634 42.1001 41.375 39.175 41.375 36.125C41.375 33.075 40.1634 30.1499 38.0067 27.9933C35.8501 25.8366 32.925 24.625 29.875 24.625Z"/>
    </symbol>
</svg>